<svg width="33" height="33" viewBox="0 0 33 33" fill="none" xmlns="http://www.w3.org/2000/svg">
<path fill-rule="evenodd" clip-rule="evenodd" d="M12.375 6.66875C10.7423 6.66875 9.41874 7.99231 9.41874 9.625V23.375C9.41874 25.0077 10.7423 26.3313 12.375 26.3313H20.625C22.2577 26.3313 23.5812 25.0077 23.5812 23.375V11.6875C23.5812 10.757 23.1431 9.8808 22.3987 9.3225L19.6487 7.26C19.137 6.87622 18.5146 6.66875 17.875 6.66875H12.375ZM7.08124 9.625C7.08124 6.70135 9.45133 4.33125 12.375 4.33125H17.875C19.0204 4.33125 20.1349 4.70276 21.0512 5.39L23.8012 7.4525C25.1342 8.45225 25.9187 10.0213 25.9187 11.6875V23.375C25.9187 26.2987 23.5486 28.6688 20.625 28.6688H12.375C9.45133 28.6688 7.08124 26.2987 7.08124 23.375V9.625Z" fill="#A258FF"/>
<path fill-rule="evenodd" clip-rule="evenodd" d="M11.4813 17.875C11.4813 17.3814 11.8814 16.9813 12.375 16.9813H17.2639C17.7575 16.9813 18.1577 17.3814 18.1577 17.875C18.1577 18.3686 17.7575 18.7688 17.2639 18.7688H12.375C11.8814 18.7688 11.4813 18.3686 11.4813 17.875Z" fill="#A258FF"/>
<path fill-rule="evenodd" clip-rule="evenodd" d="M11.4813 22C11.4813 21.5064 11.8814 21.1063 12.375 21.1063H20.625C21.1186 21.1063 21.5188 21.5064 21.5188 22C21.5188 22.4936 21.1186 22.8938 20.625 22.8938H12.375C11.8814 22.8938 11.4813 22.4936 11.4813 22Z" fill="#A258FF"/>
</svg>
