<svg width="33" height="33" viewBox="0 0 33 33" fill="none" xmlns="http://www.w3.org/2000/svg">
<path fill-rule="evenodd" clip-rule="evenodd" d="M22 7.8375H11C9.2534 7.8375 7.8375 9.2534 7.8375 11V22C7.8375 23.7466 9.2534 25.1625 11 25.1625H22C23.7466 25.1625 25.1625 23.7466 25.1625 22V11C25.1625 9.2534 23.7466 7.8375 22 7.8375ZM11 5.5C7.96243 5.5 5.5 7.96243 5.5 11V22C5.5 25.0376 7.96243 27.5 11 27.5H22C25.0376 27.5 27.5 25.0376 27.5 22V11C27.5 7.96243 25.0376 5.5 22 5.5H11Z" fill="#67F185"/>
<path fill-rule="evenodd" clip-rule="evenodd" d="M22 13.3375H11C9.2534 13.3375 7.8375 14.7534 7.8375 16.5V22C7.8375 23.7466 9.2534 25.1625 11 25.1625H22C23.7466 25.1625 25.1625 23.7466 25.1625 22V16.5C25.1625 14.7534 23.7466 13.3375 22 13.3375ZM11 11C7.96243 11 5.5 13.4624 5.5 16.5V22C5.5 25.0376 7.96243 27.5 11 27.5H22C25.0376 27.5 27.5 25.0376 27.5 22V16.5C27.5 13.4624 25.0376 11 22 11H11Z" fill="#67F185"/>
<path fill-rule="evenodd" clip-rule="evenodd" d="M12.375 9.41875C11.7295 9.41875 11.2062 8.89548 11.2062 8.25V4.125C11.2062 3.47951 11.7295 2.95625 12.375 2.95625C13.0205 2.95625 13.5437 3.47951 13.5437 4.125V8.25C13.5437 8.89548 13.0205 9.41875 12.375 9.41875Z" fill="#67F185"/>
<path fill-rule="evenodd" clip-rule="evenodd" d="M20.625 9.41875C19.9795 9.41875 19.4562 8.89548 19.4562 8.25V4.125C19.4562 3.47951 19.9795 2.95625 20.625 2.95625C21.2705 2.95625 21.7937 3.47951 21.7937 4.125V8.25C21.7937 8.89548 21.2705 9.41875 20.625 9.41875Z" fill="#67F185"/>
<path d="M11 17.875C11 17.1156 11.6156 16.5 12.375 16.5H15.125C15.8844 16.5 16.5 17.1156 16.5 17.875V20.625C16.5 21.3844 15.8844 22 15.125 22H12.375C11.6156 22 11 21.3844 11 20.625V17.875Z" fill="#67F185"/>
</svg>
