<svg width="24" height="24" viewBox="0 0 24 24" fill="none" xmlns="http://www.w3.org/2000/svg">
<path fill-rule="evenodd" clip-rule="evenodd" d="M12.8582 5.24469C14.2095 3.89338 16.4004 3.89338 17.7517 5.24469C19.103 6.596 19.103 8.78691 17.7517 10.1382L9.76523 18.1247C9.24058 18.6493 8.53203 18.9487 7.79014 18.9592L5.88628 18.986C4.84423 19.0007 3.9957 18.1522 4.01039 17.1101L4.03723 15.2062C4.04769 14.4644 4.34705 13.7558 4.87169 13.2312L12.8582 5.24469ZM16.5496 6.44677C15.8622 5.75935 14.7477 5.75935 14.0602 6.44677L6.07377 14.4332C5.86207 14.6449 5.74128 14.9309 5.73706 15.2302L5.71022 17.1341C5.70903 17.2186 5.77783 17.2874 5.86232 17.2862L7.76618 17.2593C8.06554 17.2551 8.35145 17.1343 8.56315 16.9226L16.5496 8.93614C17.237 8.24872 17.237 7.13419 16.5496 6.44677Z" fill="#847D7D"/>
<path fill-rule="evenodd" clip-rule="evenodd" d="M15.3049 10.7692L12.2293 7.69232L13.4312 6.48996L16.5067 9.56688L15.3049 10.7692Z" fill="#847D7D"/>
<path fill-rule="evenodd" clip-rule="evenodd" d="M12.304 18.8151C12.304 18.3457 12.6845 17.9651 13.154 17.9651H20.1528C20.6222 17.9651 21.0028 18.3457 21.0028 18.8151C21.0028 19.2846 20.6222 19.6651 20.1528 19.6651H13.154C12.6845 19.6651 12.304 19.2846 12.304 18.8151Z" fill="#847D7D"/>
</svg>
