<svg width="126" height="109" viewBox="0 0 126 109" fill="none" xmlns="http://www.w3.org/2000/svg">
<path fill-rule="evenodd" clip-rule="evenodd" d="M9.68597 0.401518C5.53192 1.40356 2.11216 4.43888 0.555781 8.50519L0 9.95746V54.4899V99.0223L0.555781 100.475C2.13362 104.597 5.54474 107.592 9.7989 108.59C12.1404 109.139 113.875 109.136 116.217 108.586C120.482 107.585 123.858 104.618 125.444 100.475L126 99.0223V54.4899V9.95746L125.444 8.50519C123.858 4.36208 120.482 1.39423 116.217 0.393666C113.958 -0.136306 11.8839 -0.128699 9.68597 0.401518ZM116.877 5.00222C119.309 6.13332 120.818 7.86677 121.549 10.3684C121.896 11.5579 121.93 16.2111 121.873 54.9914L121.808 98.2862L121.118 99.7583C120.221 101.671 118.783 103.108 116.906 103.972L115.397 104.665H63H10.6027L9.23523 104.027C6.73003 102.858 5.20225 101.137 4.45907 98.6473C4.10918 97.4748 4.06849 92.8763 4.06849 54.4899C4.06849 7.7934 3.99353 10.3731 5.41627 8.13053C6.49011 6.43805 8.63581 4.93474 10.6604 4.45703C11.1928 4.33141 33.7436 4.25437 63.4932 4.2762L115.397 4.31423L116.877 5.00222ZM40.7868 6.71432C39.8547 7.42635 39.8219 7.83708 39.8219 18.7741V29.4634H24.6575C9.88693 29.4634 9.48058 29.4759 9.00616 29.948C7.96882 30.9802 8.21342 32.6729 9.49315 33.317C9.96953 33.5567 13.4852 33.6281 24.9658 33.6308L39.8219 33.6345V66.376V99.1175L40.3767 99.7448C41.2262 100.705 42.2771 100.801 43.2291 100.004L44.0137 99.3466V66.4905V33.6345H63.9863H83.9589V66.1566C83.9589 101.789 83.8714 99.7259 85.4085 100.359C86.2656 100.713 86.9891 100.539 87.6659 99.8155C88.1428 99.3061 88.1507 98.7703 88.1507 66.466V33.6345L102.021 33.6308C116.985 33.6269 116.818 33.6411 117.454 32.3211C117.814 31.5742 117.716 30.8413 117.154 30.0768C116.802 29.5983 116.435 29.5829 102.534 29.4634L88.274 29.3407L88.1507 18.3391L88.0274 7.33753L87.4452 6.86865C86.6047 6.19147 85.4073 6.26237 84.6799 7.0328L84.0822 7.66557L84.0132 18.5661L83.9441 29.4663L64.0405 29.4035L44.137 29.3407L44.0137 18.3391L43.8904 7.33753L43.3082 6.86865C42.6536 6.34138 41.3773 6.26311 40.7868 6.71432ZM15.2766 15.3443C14.9062 15.7126 14.6712 16.2286 14.6712 16.6736C14.6712 18.8215 15.0192 18.913 23.1847 18.913H29.9969L30.7176 18.1958C31.4869 17.4303 31.6139 16.7553 31.1516 15.8912C30.5534 14.7738 30.439 14.7579 22.9821 14.7498L15.8817 14.7419L15.2766 15.3443ZM55.2218 15.3443C54.5565 16.006 54.415 17.2821 54.9325 17.9529C55.62 18.8438 56.2014 18.913 63 18.913C69.7986 18.913 70.38 18.8438 71.0674 17.9529C71.585 17.2821 71.4435 16.006 70.7782 15.3443L70.1731 14.7419H63H55.8269L55.2218 15.3443ZM97.3862 15.3443C96.6408 16.0858 96.5801 17.3849 97.2518 18.211L97.723 18.7903L104.87 18.8622L112.016 18.9341L112.659 18.3715C113.013 18.0621 113.37 17.4546 113.454 17.0213C113.581 16.3628 113.483 16.1115 112.856 15.4878L112.106 14.7419H105.049H97.9913L97.3862 15.3443ZM10.316 38.4224C9.64849 38.8206 9.10923 39.4048 8.77488 40.0925C8.27606 41.1176 8.26027 41.4955 8.26027 52.4043C8.26027 63.3289 8.27532 63.6895 8.7771 64.7208C9.12181 65.4291 9.64257 65.9866 10.3399 66.3931C11.3405 66.9768 11.5632 67.0031 15.4904 67.0031H19.5948L20.3121 66.3284C21.2508 65.4451 30.7896 54.0107 31.156 53.3296C31.3454 52.9772 31.4384 50.8794 31.4384 46.952C31.4384 41.3701 31.4127 41.0484 30.8836 40.0054C30.5179 39.2848 29.9924 38.7244 29.3425 38.3627C28.3747 37.8239 28.1976 37.8136 19.8493 37.8119L11.3425 37.8102L10.316 38.4224ZM54.7397 38.2646C53.7164 38.8969 53.0093 39.7407 52.6781 40.7251C52.309 41.8216 52.288 62.5533 52.6547 63.8672C52.9812 65.0368 54.0022 66.2417 55.0285 66.6684C55.872 67.019 63.038 67.1616 63.8692 66.8441C64.0982 66.7568 66.8308 63.6493 69.9418 59.939L75.598 53.1931L75.525 46.7677L75.4521 40.3425L74.7878 39.4767C73.5211 37.8249 73.3941 37.8055 63.9491 37.8065C56.1166 37.8073 55.4237 37.8419 54.7397 38.2646ZM27.2466 46.1477V50.3188H23.6873C19.9835 50.3188 19.1357 50.481 18.1524 51.378C16.8586 52.5582 16.6552 53.502 16.6493 58.3542L16.6438 62.832H14.5479H12.4521V52.4043V41.9766H19.8493H27.2466V46.1477ZM71.3836 46.1308V50.2849L67.4798 50.3632C63.6381 50.4402 63.5617 50.4523 62.6713 51.1289C61.0439 52.3653 60.9226 52.8236 60.8237 58.1089L60.7355 62.832H58.6622H56.589V52.4043V41.9766H63.9863H71.3836V46.1308ZM23.5376 56.0233C22.8304 56.8669 21.9958 57.8606 21.6828 58.2316C21.3699 58.6025 21.0514 58.9063 20.9749 58.9063C20.8982 58.9063 20.8356 57.9126 20.8356 56.6981V54.4899H22.8297H24.8235L23.5376 56.0233ZM68.6458 54.9192C68.2037 55.4902 65.9535 58.1979 65.5434 58.6521C65.2729 58.9519 65.2192 58.6376 65.2192 56.7506V54.4899H67.0986C68.851 54.4899 68.9558 54.5188 68.6458 54.9192ZM55.2329 71.5427C54.0197 71.9694 53.0058 73.0521 52.6604 74.2895C52.2979 75.5884 52.307 96.2352 52.6707 97.5386C53.0167 98.7789 54.2446 100.001 55.491 100.345C56.0271 100.493 58.0192 100.614 59.9178 100.614C62.7833 100.614 63.4828 100.542 64.0341 100.186C64.6099 99.8155 73.9908 88.7992 75.1532 87.129C75.5233 86.5971 75.5753 85.7886 75.5753 80.5579C75.5753 74.0637 75.4883 73.5502 74.1879 72.373C72.9434 71.2463 72.3191 71.1734 64.0112 71.185C57.9464 71.1933 56.0005 71.2726 55.2329 71.5427ZM97.1507 71.6379C96.0095 72.162 95.1985 72.9682 94.8247 73.9504C94.6524 74.4031 94.5616 78.5194 94.5616 85.8956C94.5616 93.2718 94.6524 97.3882 94.8247 97.8409C95.1985 98.823 96.0095 99.6293 97.1507 100.153C97.9698 100.529 98.769 100.607 101.864 100.612C105.235 100.617 105.651 100.57 106.225 100.121C106.573 99.8484 109.279 96.735 112.237 93.2026L117.616 86.7799L117.695 81.0012C117.744 77.3883 117.674 74.8901 117.51 74.3356C117.14 73.0885 116.342 72.1691 115.17 71.6394C114.257 71.2269 113.425 71.185 106.151 71.185C98.8802 71.185 98.0455 71.2269 97.1507 71.6379ZM71.3836 79.5163V83.6874H68.4367C64.5618 83.6874 63.2919 83.9696 62.1782 85.0778C61.0077 86.2423 60.7808 87.4348 60.7808 92.4197V96.4659L58.7466 96.3945L56.7123 96.3233L56.648 86.1412C56.6125 80.5409 56.6366 75.8208 56.7017 75.6522C56.7927 75.4162 58.502 75.3452 64.1019 75.3452H71.3836V79.5163ZM113.548 79.5163V83.6874L110.404 83.6933C105.661 83.7021 104.553 84.0959 103.5 86.1459C102.983 87.1531 102.945 87.5393 102.945 91.8362V96.446H100.849H98.7534V85.8956V75.3452H106.151H113.548V79.5163ZM67.1775 90.1894C66.207 91.3364 65.3691 92.2749 65.3158 92.2749C65.2628 92.2749 65.2192 91.3364 65.2192 90.1894V88.1038H67.0808H68.9425L67.1775 90.1894ZM110.679 88.4105C110.416 88.8433 107.323 92.5203 107.221 92.5203C107.175 92.5203 107.137 91.5266 107.137 90.3121V88.1038H109.001C110.427 88.1038 110.821 88.176 110.679 88.4105Z" fill="black"/>
</svg>
