<svg width="51" height="40" viewBox="0 0 51 40" fill="none" xmlns="http://www.w3.org/2000/svg">
<path fill-rule="evenodd" clip-rule="evenodd" d="M44.5984 0.048817C43.3355 0.311404 44.0802 -0.388828 30.3901 13.409L17.6635 26.2358L12.8754 21.4031C7.70003 16.1797 7.59423 16.09 6.31924 15.853C5.8093 15.7581 5.52274 15.7565 5.08207 15.8458C3.95141 16.075 3.49896 16.3729 2.02774 17.8576C0.884599 19.0112 0.603429 19.3562 0.328149 19.943C0.0260195 20.5867 -0.00162827 20.727 6.85313e-05 21.603C0.00176533 22.4395 0.038496 22.6423 0.292017 23.2146C0.564203 23.8289 1.05548 24.3483 8.26417 31.642C13.8123 37.2555 16.0878 39.4936 16.4562 39.6992C17.1662 40.0954 18.1352 40.1007 18.8626 39.7122C19.2389 39.5111 23.1779 35.5885 34.891 23.7507C49.6705 8.81351 50.4343 8.02404 50.7092 7.40096C50.9613 6.82965 50.9983 6.62428 51 5.78937C51.0028 4.40452 50.7294 3.86343 49.2468 2.31903C47.989 1.00872 47.3755 0.513859 46.6819 0.250164C46.0951 0.0270607 45.1447 -0.0647996 44.5984 0.048817Z" fill="black"/>
</svg>
