<svg width="10" height="10" viewBox="0 0 10 10" fill="none" xmlns="http://www.w3.org/2000/svg">
<path fill-rule="evenodd" clip-rule="evenodd" d="M6.76782 0.028261C6.54302 0.127121 6.47479 0.413596 6.62813 0.614781C6.74098 0.762818 6.75452 0.764598 7.77184 0.764598H8.69206L6.28356 3.17655C3.66497 5.79888 3.81667 5.63107 3.85923 5.85799C3.88142 5.97641 4.02524 6.12034 4.14357 6.14255C4.37034 6.18513 4.20272 6.33687 6.82229 3.71731L9.23172 1.30788L9.23854 2.25917L9.24537 3.21043L9.31466 3.3013C9.47914 3.51702 9.77231 3.5078 9.94111 3.2816C9.98972 3.21644 9.9908 3.18695 9.99725 1.76184C10.0045 0.147138 10.0095 0.201729 9.84487 0.076067L9.75404 0.00672781L8.29758 0.00136257C7.12347 -0.00296812 6.82694 0.00225277 6.76782 0.028261ZM1.07099 1.56248C1.00488 1.57492 0.863653 1.62713 0.757146 1.67849C0.391174 1.85504 0.0970888 2.2372 0.0268132 2.62761C-0.00893772 2.82613 -0.00893772 8.71178 0.0268132 8.91029C0.119905 9.42747 0.589018 9.89155 1.10706 9.97898C1.21628 9.99741 2.18634 10.0032 4.32872 9.99835L7.39412 9.99137L7.55328 9.92932C7.78978 9.83713 7.92281 9.75107 8.08353 9.58619C8.2506 9.41484 8.39805 9.1339 8.4383 8.91029C8.45537 8.8155 8.464 7.99278 8.464 6.46148C8.464 3.91072 8.47285 4.05282 8.30614 3.92557C8.23036 3.86773 8.19237 3.85623 8.07694 3.85623C7.92747 3.85623 7.84996 3.89626 7.75624 4.02188C7.70715 4.08763 7.70655 4.11164 7.69465 6.45038C7.6832 8.69878 7.68046 8.81684 7.63752 8.90331C7.5784 9.02236 7.40912 9.16967 7.29057 9.20521C7.15232 9.24666 1.31031 9.24575 1.16995 9.20425C1.03789 9.1652 0.838721 8.96589 0.799701 8.83373C0.75741 8.69046 0.75741 2.84744 0.799701 2.70417C0.818117 2.64178 0.873727 2.56034 0.949965 2.48403C1.02623 2.40773 1.10761 2.35209 1.16995 2.33366C1.24431 2.31167 1.78767 2.3044 3.35621 2.3044C5.40017 2.3044 5.44556 2.30339 5.54127 2.25592C5.69065 2.18186 5.7352 2.10459 5.7352 1.91945C5.7352 1.73431 5.69065 1.65703 5.54127 1.58298C5.44539 1.53541 5.40308 1.53455 3.31736 1.53719C2.10496 1.53873 1.13954 1.54961 1.07099 1.56248Z" fill="white"/>
</svg>
