<svg width="24" height="24" viewBox="0 0 24 24" fill="none" xmlns="http://www.w3.org/2000/svg">
<path fill-rule="evenodd" clip-rule="evenodd" d="M5.49254 8.18904C5.24178 6.46952 6.575 4.92776 8.31271 4.92776H16.1315C17.8692 4.92776 19.2024 6.46952 18.9517 8.18904L17.4609 18.4113C17.2567 19.8116 16.0559 20.85 14.6408 20.85H9.80345C8.38831 20.85 7.1875 19.8116 6.98329 18.4113L5.49254 8.18904ZM8.31271 6.62776C7.61153 6.62776 7.07357 7.24988 7.17475 7.94372L8.66549 18.1659C8.74789 18.731 9.23243 19.15 9.80345 19.15H14.6408C15.2118 19.15 15.6963 18.731 15.7787 18.1659L17.2695 7.94372C17.3707 7.24987 16.8327 6.62776 16.1315 6.62776H8.31271Z" fill="white"/>
<path fill-rule="evenodd" clip-rule="evenodd" d="M9.59424 2.99999C9.59424 2.53055 9.9748 2.14999 10.4442 2.14999H13.9998C14.4692 2.14999 14.8498 2.53055 14.8498 2.99999C14.8498 3.46944 14.4692 3.84999 13.9998 3.84999H10.4442C9.9748 3.84999 9.59424 3.46944 9.59424 2.99999Z" fill="white"/>
<path fill-rule="evenodd" clip-rule="evenodd" d="M9.47048 10.5171C9.79852 10.4703 10.1024 10.6982 10.1493 11.0263L11.0382 17.2485C11.0851 17.5765 10.8571 17.8804 10.5291 17.9273C10.201 17.9742 9.89712 17.7462 9.85026 17.4182L8.96137 11.196C8.9145 10.8679 9.14244 10.564 9.47048 10.5171Z" fill="white"/>
<path fill-rule="evenodd" clip-rule="evenodd" d="M13.915 17.9273C13.587 17.8804 13.359 17.5765 13.4059 17.2485L14.2948 11.0262C14.3416 10.6982 14.6456 10.4703 14.9736 10.5171C15.3016 10.564 15.5296 10.8679 15.4827 11.196L14.5938 17.4182C14.547 17.7462 14.2431 17.9742 13.915 17.9273Z" fill="white"/>
<path fill-rule="evenodd" clip-rule="evenodd" d="M12.2221 17.9333C11.8907 17.9333 11.6221 17.6647 11.6221 17.3333L11.6221 11.1111C11.6221 10.7797 11.8907 10.5111 12.2221 10.5111C12.5534 10.5111 12.8221 10.7797 12.8221 11.1111L12.8221 17.3333C12.8221 17.6647 12.5534 17.9333 12.2221 17.9333Z" fill="white"/>
</svg>
